HIERARCHY
ROOT Hips
{
	OFFSET 0.000000 0.000000 0.000000
	CHANNELS 6 Xposition Yposition Zposition Zrotation Yrotation Xrotation 
	JOINT LHipJoint
	{
		OFFSET 0.000000 0.000000 0.000000
		CHANNELS 3 Zrotation Yrotation Xrotation
		JOINT LeftUpLeg
		{
			OFFSET 1.363060 -1.794630 0.839290
			CHANNELS 3 Zrotation Yrotation Xrotation
			JOINT LeftLeg
			{
				OFFSET 2.448110 -6.726130 0.000000
				CHANNELS 3 Zrotation Yrotation Xrotation
				JOINT LeftFoot
				{
					OFFSET 2.562200 -7.039590 0.000000
					CHANNELS 3 Zrotation Yrotation Xrotation
					JOINT LeftToeBase
					{
						OFFSET 0.157640 -0.433110 2.322550
						CHANNELS 3 Zrotation Yrotation Xrotation
						End Site
						{
							OFFSET 0.000000 0.000000 0.000000
						}
					}
				}
			}
		}
	}
	JOINT RHipJoint
	{
		OFFSET 0.000000 0.000000 0.000000
		CHANNELS 3 Zrotation Yrotation Xrotation
		JOINT RightUpLeg
		{
			OFFSET -1.305520 -1.794630 0.839290
			CHANNELS 3 Zrotation Yrotation Xrotation
			JOINT RightLeg
			{
				OFFSET -2.542530 -6.985550 0.000000
				CHANNELS 3 Zrotation Yrotation Xrotation
				JOINT RightFoot
				{
					OFFSET -2.568260 -7.056230 0.000000
					CHANNELS 3 Zrotation Yrotation Xrotation
					JOINT RightToeBase
					{
						OFFSET -0.164730 -0.452590 2.363150
						CHANNELS 3 Zrotation Yrotation Xrotation
						End Site
						{
							OFFSET 0.000000 0.000000 0.000000
						}
					}
				}
			}
		}
	}
	JOINT LowerBack
	{
		OFFSET 0.000000 0.000000 0.000000
		CHANNELS 3 Zrotation Yrotation Xrotation
		JOINT Spine
		{
			OFFSET 0.028270 2.035590 -0.193380
			CHANNELS 3 Zrotation Yrotation Xrotation
			JOINT Spine1
			{
				OFFSET 0.056720 2.048850 -0.042750
				CHANNELS 3 Zrotation Yrotation Xrotation
				JOINT Neck
				{
					OFFSET 0.000000 0.000000 0.000000
					CHANNELS 3 Zrotation Yrotation Xrotation
					JOINT Neck1
					{
						OFFSET -0.054170 1.746240 0.172020
						CHANNELS 3 Zrotation Yrotation Xrotation
						JOINT Head
						{
							OFFSET 0.104070 1.761360 -0.123970
							CHANNELS 3 Zrotation Yrotation Xrotation
							End Site
							{
								OFFSET 0.000000 0.000000 0.000000
							}
						}
					}
				}
				JOINT LeftShoulder
				{
					OFFSET 0.000000 0.000000 0.000000
					CHANNELS 3 Zrotation Yrotation Xrotation
					JOINT LeftArm
					{
						OFFSET 3.362410 1.200890 -0.311210
						CHANNELS 3 Zrotation Yrotation Xrotation
						JOINT LeftForeArm
						{
							OFFSET 4.983000 -0.000000 -0.000000
							CHANNELS 3 Zrotation Yrotation Xrotation
							JOINT LeftHand
							{
								OFFSET 3.483560 -0.000000 -0.000000
								CHANNELS 3 Zrotation Yrotation Xrotation
								JOINT LeftFingerBase
								{
									OFFSET 0.000000 0.000000 0.000000
									CHANNELS 3 Zrotation Yrotation Xrotation
									JOINT LeftHandIndex1
									{
										OFFSET 0.715260 -0.000000 -0.000000
										CHANNELS 3 Zrotation Yrotation Xrotation
										End Site
										{
											OFFSET 0.000000 0.000000 0.000000
										}
									}
								}
								JOINT LThumb
								{
									OFFSET 0.000000 0.000000 0.000000
									CHANNELS 3 Zrotation Yrotation Xrotation
									End Site
									{
										OFFSET 0.000000 0.000000 0.000000
									}
								}
							}
						}
					}
				}
				JOINT RightShoulder
				{
					OFFSET 0.000000 0.000000 0.000000
					CHANNELS 3 Zrotation Yrotation Xrotation
					JOINT RightArm
					{
						OFFSET -3.136600 1.374050 -0.404650
						CHANNELS 3 Zrotation Yrotation Xrotation
						JOINT RightForeArm
						{
							OFFSET -5.241900 -0.000000 -0.000000
							CHANNELS 3 Zrotation Yrotation Xrotation
							JOINT RightHand
							{
								OFFSET -3.444170 -0.000000 -0.000000
								CHANNELS 3 Zrotation Yrotation Xrotation
								JOINT RightFingerBase
								{
									OFFSET 0.000000 0.000000 0.000000
									CHANNELS 3 Zrotation Yrotation Xrotation
									JOINT RightHandIndex1
									{
										OFFSET -0.622530 -0.000000 -0.000000
										CHANNELS 3 Zrotation Yrotation Xrotation
										End Site
										{
											OFFSET 0.000000 0.000000 0.000000
										}
									}
								}
								JOINT RThumb
								{
									OFFSET 0.000000 0.000000 0.000000
									CHANNELS 3 Zrotation Yrotation Xrotation
									End Site
									{
										OFFSET 0.000000 0.000000 0.000000
									}
								}
							}
						}
					}
				}
			}
		}
	}
}
MOTION
Frames: 12
Frame Time: 0.008333
-0.209641 17.827168 1.771742 -179.002884 -5.239116 -178.321750 -2.861945 0.068477 0.525142 -7.863169 -27.676016 -1.714371 0.818006 6.732269 19.040111 2.165739 -27.807511 -3.948172 2.322500 -9.507800 -27.397000 1.944393 1.528261 -0.678265 14.642727 10.262282 -6.563257 -2.181310 -7.795388 20.611210 -1.408536 19.869971 -6.058637 -0.002400 -0.316000 0.868100 -0.640474 1.442703 14.282756 -0.204631 1.968687 0.575680 2.020063 0.412069 -6.271417 -6.537244 -5.286651 -10.081760 12.567715 -7.938453 14.641614 2.895300 -3.216000 7.382000 2.328808 5.478772 -0.576376 -96.710878 16.594188 3.923752 22.009875 -39.850761 -7.758391 -0.385126 0.874599 -2.798882 6.725581 -13.678386 -1.786400 -7.125000 0.000000 0.000000 -13.844200 15.582800 9.914000 -1.070869 -5.622616 -0.922913 86.319507 1.228232 24.402627 -21.145456 41.246152 -7.181781 0.029616 -2.170190 -6.129216 -6.102943 -37.671290 3.435600 7.125000 0.000000 0.000000 33.293000 -62.526200 -15.051500 
-0.336521 17.806951 1.803014 -178.742303 -2.216175 -178.287957 -2.812146 0.062827 0.569215 -7.860528 -26.975793 -1.604845 0.748387 6.569182 18.632156 1.885800 -27.680289 -1.873315 1.855100 -8.557600 -24.420800 1.924660 1.506741 -0.686805 14.567056 11.219169 -6.965654 -2.249348 -7.829847 20.813721 -1.309724 21.355385 -5.507986 -0.001900 -0.283900 0.780100 -0.529022 1.410256 14.384453 -0.230491 1.920420 0.687296 1.963796 0.369829 -6.212329 -6.798088 -5.538900 -9.986756 12.983805 -8.347307 14.747607 3.020100 -3.400800 7.446200 2.349413 5.494571 -0.560156 -97.188103 16.738227 3.220370 21.515422 -39.385109 -7.515907 -0.382775 0.872945 -2.826466 7.365427 -13.591091 -1.937600 -7.125000 0.000000 0.000000 -13.421400 15.634500 9.577700 -1.038525 -5.610922 -0.935706 86.327732 1.679203 26.383495 -22.080821 42.184850 -7.640068 0.093854 -2.153873 -6.173324 -5.487406 -37.535125 3.103700 7.125000 0.000000 0.000000 33.701400 -62.278400 -15.062100 
-0.466887 17.784642 1.825123 -178.710718 0.851006 -178.193295 -2.777264 0.058451 0.616109 -8.190140 -26.090304 -1.441084 0.681173 6.466305 18.376364 1.765800 -26.707039 -0.411909 1.154100 -6.820900 -19.186000 1.909212 1.485368 -0.693280 14.231616 12.256019 -7.375683 -2.308136 -7.857252 20.993108 -1.202303 22.597843 -5.038634 -0.002100 0.292400 -0.803500 -0.814556 1.062305 14.393205 -0.316496 1.875567 0.748545 2.060422 0.548908 -6.146162 -6.972503 -5.705448 -9.857746 13.317294 -8.668875 14.942054 3.120100 -3.546900 7.522000 2.380740 5.507024 -0.534754 -97.634561 16.690446 2.268100 20.599149 -38.497500 -7.063883 -0.381769 0.854188 -2.246324 7.635018 -13.522982 -1.996100 -7.125000 0.000000 0.000000 -13.238400 15.707800 9.418100 -1.011529 -5.596944 -0.949922 86.285947 1.979291 28.328922 -23.059777 43.129609 -8.128584 0.157231 -2.130387 -6.120452 -4.844597 -37.311397 2.755100 7.125000 0.000000 0.000000 34.042000 -61.960900 -14.978200 
-0.595162 17.763728 1.832393 -178.904842 3.689967 -178.196266 -2.795491 0.058154 0.687968 -8.800880 -24.105415 -1.401113 0.647473 6.579259 18.559219 2.224547 -24.269244 -3.151450 1.948000 -8.757000 -25.038000 1.908620 1.479917 -0.711202 13.676907 13.108065 -7.552531 -2.328698 -7.834560 20.968760 -1.115134 23.458637 -4.753378 -0.036000 1.224700 -3.367200 -1.383331 0.959201 14.343785 -0.401346 1.647885 0.865519 2.390651 0.443306 -6.001765 -7.107095 -5.832042 -9.587586 13.652854 -8.934238 14.912212 3.219500 -3.678300 7.506600 2.417495 5.508197 -0.509045 -98.022305 16.582655 1.423329 19.510234 -37.412107 -6.523650 -0.385828 0.822711 -1.667233 7.009334 -13.537830 -1.838800 -7.125000 0.000000 0.000000 -13.650100 15.762100 9.712000 -0.982859 -5.588762 -0.973603 86.126264 2.204039 30.211714 -24.136803 44.122842 -8.677418 0.219794 -2.104439 -6.239177 -4.316295 -37.227292 2.480900 7.125000 0.000000 0.000000 34.434000 -61.788800 -15.033100 
-0.730408 17.749187 1.845739 -179.123134 6.470952 -178.205632 -2.785642 0.043972 0.774221 -9.445198 -21.660124 -1.452421 0.543519 6.516530 18.295245 2.416013 -21.400379 -4.463629 2.443800 -9.735000 -28.122600 1.897772 1.476608 -0.732935 13.080417 13.852971 -7.869445 -2.351220 -7.812449 20.967060 -1.003177 24.213831 -4.270906 -0.078600 1.808900 -4.977800 -2.018886 0.775597 14.428963 -0.443643 1.311375 1.004808 2.820448 0.288722 -5.903966 -7.104167 -6.660710 -9.492216 13.739527 -8.970534 14.963109 3.300300 -3.254100 7.527800 2.450027 5.507872 -0.488653 -98.446155 16.505502 0.794753 18.529429 -36.411552 -6.041548 -0.394417 0.793695 -1.092122 6.076422 -13.459752 -1.596300 -7.125000 0.000000 0.000000 -14.269000 15.918400 10.131300 -0.950240 -5.583386 -1.007258 85.885052 2.421467 31.898700 -25.365570 45.211222 -9.326240 0.292975 -2.068493 -6.437858 -3.643028 -36.955865 2.120000 7.125000 0.000000 0.000000 34.763300 -61.439400 -14.907800 
-0.866450 17.738332 1.874521 -179.296377 9.275495 -177.899497 -2.767687 0.017759 0.831037 -9.907350 -19.347377 -1.951767 0.423129 6.382683 17.874455 2.391768 -18.603031 -4.775605 2.838800 -10.429400 -30.378800 1.890327 1.452189 -0.741423 12.492588 14.954270 -8.623432 -2.381559 -7.801462 21.067674 -0.946171 24.416115 -3.941695 -0.153500 2.524900 -6.958600 -2.672133 0.553656 14.439313 -0.478268 0.903806 0.986335 3.275228 0.102250 -5.916189 -7.262042 -6.835792 -9.553485 14.117774 -9.238803 15.058383 3.415900 -3.350800 7.606400 2.484999 5.515848 -0.459536 -98.745097 16.377181 0.249033 17.420201 -35.251198 -5.520442 -0.404616 0.757931 -0.032183 5.256804 -13.336866 -1.382500 -7.125000 0.000000 0.000000 -14.810000 16.118300 10.476100 -0.922356 -5.558568 -1.024044 85.749149 2.439718 33.104101 -26.661858 46.317064 -10.046768 0.336439 -2.005685 -6.328427 -3.747072 -35.871965 2.154100 7.125000 0.000000 0.000000 33.513600 -60.636000 -13.656600 
-0.995621 17.738133 1.904597 -179.598175 11.925628 -177.559231 -2.767627 -0.008496 0.854387 -10.538409 -17.680943 -2.496698 0.337731 6.305725 17.638105 2.276561 -16.291665 -4.796234 3.205900 -11.021200 -32.351300 1.900135 1.427059 -0.742211 11.793528 16.123750 -9.241992 -2.362255 -7.726818 20.943065 -1.055790 23.716794 -4.546616 -0.328900 3.686000 -10.194900 -3.489410 0.291535 14.384291 -0.560279 0.412442 0.927663 3.772243 -0.123430 -5.911394 -7.513629 -7.093951 -9.723361 14.699847 -9.626701 15.364562 3.597000 -3.468600 7.785400 2.530660 5.545273 -0.426098 -98.719105 16.010965 -0.144477 15.969737 -33.686083 -4.879196 -0.420721 0.706653 1.627917 4.304840 -13.098135 -1.133500 -7.125000 0.000000 0.000000 -15.441100 16.451700 10.840600 -0.905185 -5.527002 -1.030856 85.764278 2.336930 33.794561 -27.808913 47.260768 -10.704095 0.372976 -1.941822 -5.746651 -3.737649 -34.423575 2.105200 7.125000 0.000000 0.000000 32.087800 -59.492600 -12.114900 
-1.120709 17.754665 1.925611 179.984507 14.412849 -177.314599 -2.782051 -0.037936 0.867000 -11.289902 -16.259767 -3.028072 0.287331 6.282798 17.557497 2.170094 -14.617444 -4.966994 3.533800 -11.512700 -34.029200 1.920595 1.414675 -0.745613 11.015702 16.989829 -9.547441 -2.274259 -7.565861 20.486261 -1.307213 21.987824 -6.060427 -0.547300 4.739700 -13.167500 -4.314636 0.006425 14.313886 -0.721801 -0.114178 0.871218 4.174495 -0.366419 -5.888235 -7.521868 -7.389858 -9.922983 15.001317 -10.079548 15.787200 3.646000 -3.616000 7.993800 2.558651 5.573213 -0.404190 -98.210949 15.706538 -0.077068 14.538548 -32.088629 -4.277059 -0.449581 0.649757 3.538666 2.691536 -12.780590 -0.737700 -7.125000 0.000000 0.000000 -16.514700 16.886700 11.496700 -0.893880 -5.499143 -1.034999 85.881172 2.056183 34.218188 -28.754778 48.003905 -11.236824 0.438305 -1.914793 -5.892689 -3.016428 -33.803414 1.722200 7.125000 0.000000 0.000000 32.176100 -58.840200 -11.640400 
-1.247589 17.780360 1.936567 179.690132 16.922405 -177.062003 -2.788015 -0.068970 0.890013 -11.812830 -14.633441 -3.573119 0.230482 6.187525 17.270915 2.078305 -13.502669 -4.991844 3.717500 -11.774800 -34.939700 1.932374 1.406835 -0.753985 10.389341 17.325869 -9.865026 -2.158585 -7.407228 20.015071 -1.550032 19.180268 -7.719570 -0.392200 4.021300 -11.136500 -4.843465 -0.260047 14.213056 -0.901923 -0.576097 0.779869 4.361740 -0.581282 -5.889330 -7.365218 -7.642716 -9.981645 15.141525 -10.486132 16.095464 3.620300 -3.756500 8.128900 2.571510 5.591376 -0.395228 -97.411355 15.461341 0.163440 13.243327 -30.586353 -3.752766 -0.494127 0.594394 6.089606 0.356639 -12.640642 -0.207800 -7.125000 0.000000 0.000000 -18.042200 17.162300 12.557000 -0.882266 -5.475883 -1.037529 86.026967 1.558811 34.459855 -29.418061 48.505218 -11.609339 0.470619 -1.904935 -7.151778 -3.445434 -33.762274 1.941900 7.125000 0.000000 0.000000 31.726600 -58.898900 -11.501600 
-1.379449 17.803067 1.943140 179.885681 19.508992 -176.791045 -2.768031 -0.088293 0.935520 -11.783215 -12.802794 -3.952025 0.159840 6.000768 16.727067 1.997687 -12.717963 -4.780752 3.762300 -11.837200 -35.158500 1.917834 1.399224 -0.767788 10.335900 16.777793 -10.333985 -2.041242 -7.277722 19.627651 -1.632723 15.779587 -8.849840 -0.231800 3.098700 -8.553600 -4.782797 -0.542602 14.195847 -0.955832 -0.963518 0.721763 4.330714 -0.768774 -5.920203 -7.381002 -7.796655 -9.861202 15.551586 -10.757326 16.118137 3.714100 -3.845000 8.152900 2.591944 5.614909 -0.385947 -96.540394 14.926887 0.176099 11.915496 -28.973235 -3.243683 -0.554604 0.548126 9.475177 -2.471652 -12.560736 0.413300 -7.125000 0.000000 0.000000 -19.865800 17.368200 13.895000 -0.867921 -5.462721 -1.045501 86.075444 0.999077 34.449377 -29.893838 48.851632 -11.888097 0.475190 -1.894754 -8.020509 -4.191365 -33.819030 2.328000 7.125000 0.000000 0.000000 31.070100 -59.112300 -11.394900 
-1.515591 17.816113 1.951207 -179.594198 22.290739 -176.433179 -2.733356 -0.097417 0.986649 -11.448924 -10.901595 -4.266298 0.088939 5.798603 16.141853 1.905107 -11.817095 -4.536372 3.786600 -11.870900 -35.276900 1.887532 1.389625 -0.778663 10.653668 15.336531 -11.163359 -1.931649 -7.162144 19.296215 -1.553896 12.311829 -9.538906 -0.104500 2.084600 -5.739600 -4.422058 -0.828252 14.204386 -0.886160 -1.299864 0.690385 4.237119 -0.937105 -5.968748 -7.602013 -7.908875 -9.660229 16.085708 -10.951461 15.994550 3.883900 -3.916200 8.126300 2.599067 5.638995 -0.384766 -95.619248 14.490545 0.483891 10.936387 -27.745172 -2.879337 -0.622636 0.527709 12.448325 -5.877869 -12.357986 1.141700 -7.125000 0.000000 0.000000 -22.050600 17.631000 15.534800 -0.845945 -5.452073 -1.056706 85.929835 0.533905 34.518583 -30.235445 49.088026 -12.092151 0.466732 -1.887910 -8.798063 -4.995463 -34.156199 2.762900 7.125000 0.000000 0.000000 30.619100 -59.576800 -11.555200 
-1.645559 17.827865 1.953398 -179.354969 25.254896 -176.203294 -2.709841 -0.102320 1.032217 -11.515195 -9.107103 -4.376657 0.005561 5.570574 15.488086 1.764862 -10.543028 -4.364351 3.838200 -11.941900 -35.526700 1.861380 1.392342 -0.785912 10.750621 13.150837 -12.174378 -1.823736 -7.078094 19.041967 -1.362373 8.778197 -10.227501 -0.042000 1.322400 -3.636300 -4.462990 -1.056258 14.087047 -0.807974 -1.604049 0.735572 4.350351 -1.090346 -5.879867 -8.031556 -8.059571 -9.470559 16.646088 -11.170962 15.900046 4.093200 -4.011700 8.125400 2.590903 5.665592 -0.392908 -94.701705 14.287574 1.179618 10.428943 -27.100946 -2.685635 -0.685924 0.528925 14.709422 -9.518671 -12.064414 1.892300 -7.125000 0.000000 0.000000 -24.358900 17.892700 17.342200 -0.826909 -5.441864 -1.064574 85.611534 0.322764 34.632995 -30.238373 49.070824 -12.097197 0.439569 -1.881586 -9.790294 -6.124184 -34.363079 3.356500 7.125000 0.000000 0.000000 29.748400 -60.006300 -11.498300 
